<svg xmlns="http://www.w3.org/2000/svg" viewBox="0 0 600 200" width="600" height="200">
  <defs>
    <linearGradient id="bg" x1="0%" y1="0%" x2="100%" y2="100%">
      <stop offset="0%" stop-color="#0d0d0d"/>
      <stop offset="100%" stop-color="#141414"/>
    </linearGradient>

    <linearGradient id="redFlame" x1="0%" y1="0%" x2="100%" y2="100%">
      <stop offset="0%" stop-color="#ff1a1a"/>
      <stop offset="60%" stop-color="#cc0000"/>
      <stop offset="100%" stop-color="#7f0000"/>
    </linearGradient>

    <linearGradient id="bookGrad" x1="0%" y1="0%" x2="0%" y2="100%">
      <stop offset="0%" stop-color="#ffffff"/>
      <stop offset="100%" stop-color="#cccccc"/>
    </linearGradient>

    <linearGradient id="whizGrad" x1="0%" y1="0%" x2="100%" y2="100%">
      <stop offset="0%" stop-color="#ff2222"/>
      <stop offset="100%" stop-color="#990000"/>
    </linearGradient>

    <linearGradient id="ticketBody" x1="0%" y1="0%" x2="100%" y2="100%">
      <stop offset="0%" stop-color="#1c1c1c"/>
      <stop offset="100%" stop-color="#111111"/>
    </linearGradient>

    <radialGradient id="ambientRed" cx="20%" cy="80%" r="40%">
      <stop offset="0%" stop-color="#cc0000" stop-opacity="0.12"/>
      <stop offset="100%" stop-color="#cc0000" stop-opacity="0"/>
    </radialGradient>

    <filter id="glow" x="-40%" y="-40%" width="180%" height="180%">
      <feGaussianBlur stdDeviation="5" result="blur"/>
      <feColorMatrix in="blur" type="matrix"
        values="1 0 0 0 1   0 0 0 0 0   0 0 0 0 0   0 0 0 0.9 0" result="redBlur"/>
      <feMerge><feMergeNode in="redBlur"/><feMergeNode in="SourceGraphic"/></feMerge>
    </filter>

    <filter id="shadow">
      <feDropShadow dx="0" dy="4" stdDeviation="10" flood-color="#cc0000" flood-opacity="0.5"/>
    </filter>

    <filter id="subtleShadow">
      <feDropShadow dx="1" dy="2" stdDeviation="3" flood-color="#000" flood-opacity="0.6"/>
    </filter>
  </defs>

  <!-- Canvas -->
  <rect width="600" height="200" rx="20" fill="url(#bg)"/>
  <rect width="600" height="200" rx="20" fill="url(#ambientRed)"/>

  <!-- ICON BLOCK -->
  <g transform="translate(28, 30)">

    <!-- Icon background card -->
    <rect x="0" y="0" width="140" height="140" rx="18" fill="url(#ticketBody)" stroke="#2a2a2a" stroke-width="1.2"/>

    <!-- Top red bar -->
    <rect x="0" y="0" width="140" height="8" rx="4" fill="url(#redFlame)"/>
    <rect x="0" y="4" width="140" height="4" fill="url(#redFlame)"/>

    <!-- Film strip holes LEFT -->
    <rect x="10" y="22" width="12" height="9" rx="3" fill="#0d0d0d" stroke="#2e2e2e" stroke-width="1"/>
    <rect x="10" y="38" width="12" height="9" rx="3" fill="#0d0d0d" stroke="#2e2e2e" stroke-width="1"/>
    <rect x="10" y="54" width="12" height="9" rx="3" fill="#0d0d0d" stroke="#2e2e2e" stroke-width="1"/>
    <rect x="10" y="70" width="12" height="9" rx="3" fill="#0d0d0d" stroke="#2e2e2e" stroke-width="1"/>
    <rect x="10" y="86" width="12" height="9" rx="3" fill="#0d0d0d" stroke="#2e2e2e" stroke-width="1"/>

    <!-- Film strip holes RIGHT -->
    <rect x="118" y="22" width="12" height="9" rx="3" fill="#0d0d0d" stroke="#2e2e2e" stroke-width="1"/>
    <rect x="118" y="38" width="12" height="9" rx="3" fill="#0d0d0d" stroke="#2e2e2e" stroke-width="1"/>
    <rect x="118" y="54" width="12" height="9" rx="3" fill="#0d0d0d" stroke="#2e2e2e" stroke-width="1"/>
    <rect x="118" y="70" width="12" height="9" rx="3" fill="#0d0d0d" stroke="#2e2e2e" stroke-width="1"/>
    <rect x="118" y="86" width="12" height="9" rx="3" fill="#0d0d0d" stroke="#2e2e2e" stroke-width="1"/>

    <!-- Screen area -->
    <rect x="30" y="18" width="80" height="52" rx="6" fill="#0f0f0f" stroke="#1e1e1e" stroke-width="1"/>
    <rect x="32" y="20" width="76" height="48" rx="5" fill="#180000" opacity="0.7"/>

    <!-- Play button glow halo -->
    <circle cx="70" cy="44" r="19" fill="#cc0000" opacity="0.08" filter="url(#glow)"/>
    <circle cx="70" cy="44" r="14" fill="none" stroke="#cc0000" stroke-width="1.2" opacity="0.4"/>
    <!-- Play triangle -->
    <polygon points="64,37 64,51 78,44" fill="url(#redFlame)" filter="url(#glow)"/>

    <!-- Dashed tear line -->
    <line x1="28" y1="100" x2="112" y2="100" stroke="#2a2a2a" stroke-width="1.5" stroke-dasharray="6,5"/>
    <circle cx="0" cy="100" r="9" fill="#0d0d0d"/>
    <circle cx="140" cy="100" r="9" fill="#0d0d0d"/>

    <!-- Stub text -->
    <text x="34" y="118" font-family="'Courier New', monospace" font-size="8.5" fill="#3a3a3a" letter-spacing="2.5">ROW D  ·  SEAT 07</text>
    <text x="30" y="133" font-size="11" fill="#cc0000" opacity="0.65" font-family="monospace">★★★★★</text>

  </g>

  <!-- WORDMARK -->
  <g transform="translate(192, 22)">

    <!-- "Book" white serif italic -->
    <text
      x="0" y="88"
      font-family="Georgia, 'Times New Roman', serif"
      font-size="72"
      font-weight="700"
      font-style="italic"
      fill="url(#bookGrad)"
      filter="url(#subtleShadow)"
      letter-spacing="-2">Book</text>

    <!-- "Whiz" shadow-red bold -->
    <text
      x="176" y="88"
      font-family="Georgia, 'Times New Roman', serif"
      font-size="72"
      font-weight="900"
      font-style="italic"
      fill="url(#whizGrad)"
      filter="url(#shadow)"
      letter-spacing="-2">Whiz</text>

    <!-- Underline accent -->
    <rect x="2" y="96" width="80" height="3" rx="1.5" fill="url(#redFlame)" opacity="0.8"/>
    <rect x="86" y="96" width="30" height="3" rx="1.5" fill="#2a2a2a"/>
    <rect x="120" y="96" width="12" height="3" rx="1.5" fill="#1e1e1e"/>
    <circle cx="177" cy="97" r="3" fill="url(#redFlame)" opacity="0.6"/>

    <!-- Tagline -->
    <text
      x="2" y="128"
      font-family="'Trebuchet MS', 'Gill Sans', sans-serif"
      font-size="12.5"
      fill="#444444"
      letter-spacing="5"
      font-weight="400">MOVIE TICKET BOOKING</text>

    <rect x="0" y="134" width="390" height="0.8" rx="0.4" fill="#222"/>

  </g>

  <!-- Decorative corner dots -->
  <circle cx="568" cy="22" r="4" fill="#cc0000" opacity="0.35"/>
  <circle cx="580" cy="22" r="2.5" fill="#cc0000" opacity="0.2"/>
  <circle cx="588" cy="22" r="1.5" fill="#cc0000" opacity="0.12"/>
  <circle cx="18" cy="178" r="3" fill="#cc0000" opacity="0.25"/>
  <circle cx="28" cy="182" r="2" fill="#cc0000" opacity="0.12"/>

  <!-- Border -->
  <rect x="1" y="1" width="598" height="198" rx="20" fill="none" stroke="#1e1e1e" stroke-width="1.5"/>
  <rect x="3" y="3" width="594" height="194" rx="18" fill="none" stroke="#cc0000" stroke-width="0.5" opacity="0.2"/>
</svg>
